PathFileType	4	(X/Y/Z)	C:/Users/opensim2020/Desktop/walking_exp_matlab/subject01_walking04_straight_01.trc	
DataRate	CameraRate	NumFrames	NumMarkers	Units	OrigDataRate	OrigDataStartFrame	OrigNumFrames	
100.00	100.00	4	43	mm	100.00	893	216	
Frame#	Time	LFHD			RFHD			LBHD			RBHD			C7			T10			CLAV			STRN			RBAK			LSHO			LUPA			LELB			LFRM			LWRA			LWRB			LFIN			RSHO			RUPA			RELB			RFRM			RWRA			RWRB			RFIN			LASI			RASI			LPSI			RPSI			LTHI			LKNE			LTIB			LANK			LHEE			LTOE			RTHI			RKNE			RTIB			RANK			RHEE			RTOE			*39			*40			*41			*42			
		X1	Y1	Z1	X2	Y2	Z2	X3	Y3	Z3	X4	Y4	Z4	X5	Y5	Z5	X6	Y6	Z6	X7	Y7	Z7	X8	Y8	Z8	X9	Y9	Z9	X10	Y10	Z10	X11	Y11	Z11	X12	Y12	Z12	X13	Y13	Z13	X14	Y14	Z14	X15	Y15	Z15	X16	Y16	Z16	X17	Y17	Z17	X18	Y18	Z18	X19	Y19	Z19	X20	Y20	Z20	X21	Y21	Z21	X22	Y22	Z22	X23	Y23	Z23	X24	Y24	Z24	X25	Y25	Z25	X26	Y26	Z26	X27	Y27	Z27	X28	Y28	Z28	X29	Y29	Z29	X30	Y30	Z30	X31	Y31	Z31	X32	Y32	Z32	X33	Y33	Z33	X34	Y34	Z34	X35	Y35	Z35	X36	Y36	Z36	X37	Y37	Z37	X38	Y38	Z38	X39	Y39	Z39	X40	Y40	Z40	X41	Y41	Z41	X42	Y42	Z42	X43	Y43	Z43	

82	0.810	-1060.91956	-251.92400	1674.94177	-947.70294	-237.50786	1684.48511	-1050.75391	-356.87186	1606.71472	-930.34235	-344.52914	1614.83057	-1002.67560	-372.10602	1434.81592	-994.99005	-417.73123	1143.82397	-1007.58258	-230.59319	1362.95898	-1012.28558	-193.35269	1205.80737	-919.15277	-428.54803	1244.00989	-1166.87402	-297.54477	1390.52490	-1245.40039	-353.28223	1208.58289	-1240.76184	-388.37387	1064.06128	-1265.74597	-375.86288	951.28394	-1245.94507	-327.12628	820.12646	-1272.81604	-380.83167	828.83179	-1276.40234	-352.62872	747.25647	-853.57697	-284.45154	1394.24463	-743.20459	-331.96533	1197.71729	-730.99823	-323.11026	1071.75818	-700.92346	-264.37799	964.76221	-722.17273	-154.04175	877.11981	-683.18365	-195.54160	865.14410	-682.54095	-136.15015	804.48322	-1108.41028	-248.01602	936.08575	-890.16907	-254.32800	927.44562	-1064.07776	-435.35699	948.52802	-919.95679	-439.75259	951.13153	-1179.73096	-195.92563	622.72614	-1162.34070	-169.22339	491.40939	-1176.13293	-201.40875	307.11600	-1131.24695	-196.33565	83.22937	-1074.28259	-233.71867	49.14249	-1141.51111	-51.34188	58.05949	-855.60712	-350.15482	598.92798	-887.09937	-365.82703	441.34079	-888.11072	-442.11700	281.78516	-948.79596	-492.99533	84.60622	-1002.81128	-544.17871	53.44799	-941.94244	-358.85849	33.35709	-969.92517	-257.25424	1714.63208	-3101.95020	1973.14868	1023.32782	-3140.57324	2012.57007	1021.94006			 
83	0.820	-1061.70325	-242.50607	1674.00586	-948.37683	-228.06595	1683.69128	-1051.30725	-347.28073	1605.59680	-931.03235	-335.07996	1613.93396	-1003.28229	-362.66791	1434.08105	-995.64429	-408.75247	1143.23425	-1008.10205	-221.29680	1362.03833	-1012.65369	-184.24199	1204.82214	-919.57404	-419.32071	1243.47961	-1167.47815	-288.08417	1389.65369	-1245.68152	-344.35529	1207.64026	-1240.51721	-380.00217	1063.42249	-1265.41675	-368.49130	950.58990	-1245.48840	-321.15671	818.91577	-1272.35889	-374.76123	828.16595	-1275.99805	-347.57910	746.24121	-854.10754	-274.96432	1393.48315	-743.32501	-322.73303	1197.20874	-731.12372	-313.72607	1071.18701	-701.40656	-253.97704	964.52057	-722.83850	-143.15636	877.80194	-683.96875	-184.62799	865.30981	-683.48718	-124.53128	805.30804	-1108.39453	-238.34348	935.47064	-890.12079	-245.41797	927.22314	-1064.58167	-425.98410	947.63666	-920.65747	-430.80170	950.82147	-1180.04004	-189.43538	620.57825	-1161.65527	-161.24338	489.83038	-1176.12317	-185.35005	305.05502	-1131.68103	-169.17404	81.19283	-1075.07007	-205.81523	45.44300	-1139.71936	-22.63941	62.14280	-855.34039	-344.75317	599.16748	-886.66394	-361.81454	441.39581	-887.92682	-439.65137	282.78558	-948.74146	-492.48334	85.84531	-1002.69244	-543.74487	55.43483	-941.87396	-358.76776	33.32448	-970.50739	-247.87604	1713.94897	-3102.06934	1972.91907	1023.97534	-3140.69678	2012.46460	1021.91058			 
84	0.830	-1062.49060	-232.99503	1673.06189	-949.28290	-218.56256	1682.73877	-1052.09424	-337.77863	1604.64673	-931.91516	-325.57681	1612.94971	-1003.96167	-353.43564	1433.47046	-996.47620	-399.55908	1142.50574	-1008.79150	-211.97615	1361.07532	-1013.09216	-175.07149	1203.79285	-920.02246	-410.14517	1242.94885	-1168.24414	-278.64853	1388.72229	-1246.06030	-335.32462	1206.61475	-1240.53125	-371.31195	1062.73389	-1265.17859	-360.88605	949.74878	-1245.10742	-314.78409	817.63519	-1272.06213	-368.27466	827.52350	-1275.43848	-341.92761	745.25714	-854.85248	-265.44144	1392.68298	-743.77832	-312.88226	1196.74487	-731.31384	-304.36349	1070.61853	-701.99561	-243.98561	964.14648	-723.94324	-132.69302	878.14606	-684.88690	-173.84834	865.38177	-684.56036	-113.54478	805.86810	-1108.30664	-228.53001	934.73981	-890.18536	-236.37930	926.80865	-1065.22864	-416.32324	946.68823	-921.34863	-421.56677	950.35992	-1180.81628	-182.55254	618.43628	-1161.23535	-153.34633	488.26981	-1176.01929	-170.00259	303.33652	-1131.94324	-143.66687	79.91579	-1075.60693	-179.21541	42.64594	-1138.01245	4.21267	66.60942	-855.03180	-338.85632	599.39020	-886.34479	-357.46564	441.77554	-887.73920	-437.25888	283.82385	-948.48602	-491.71051	87.13376	-1002.52472	-543.59216	57.50760	-941.97833	-358.65115	33.30730	-971.64667	-238.41283	1712.77686	-3101.89746	1973.15820	1023.32837	-3140.73657	2012.53992	1021.99005			 
85	0.840	-1063.43005	-223.43166	1672.09863	-950.21729	-208.96646	1681.78662	-1053.00488	-328.33545	1603.74390	-932.76123	-315.95624	1612.04321	-1004.83582	-343.97934	1432.57141	-997.35248	-390.23981	1141.67249	-1009.56964	-202.59569	1360.11401	-1013.61273	-165.89247	1202.81042	-920.68896	-401.01208	1242.34216	-1169.05164	-269.19052	1387.73413	-1246.59692	-326.24454	1205.53235	-1240.55774	-362.63538	1061.80261	-1265.10046	-353.03317	948.91840	-1245.22815	-307.84305	816.23364	-1271.84363	-361.41653	826.68457	-1275.08862	-335.89783	744.09863	-855.69849	-256.07800	1391.83862	-744.23743	-303.35797	1196.25830	-731.66577	-295.00247	1069.98938	-702.65875	-234.01675	963.72595	-725.41388	-122.56691	878.38879	-685.96765	-163.23973	865.33105	-685.82043	-102.56638	806.33716	-1108.28979	-218.63347	933.81744	-890.17859	-227.34741	926.40686	-1065.92249	-406.64966	945.71899	-922.27722	-412.29608	949.87390	-1181.59521	-175.50188	616.11407	-1161.05774	-145.45537	486.65109	-1175.93018	-155.62526	301.82254	-1132.02893	-119.60205	79.36355	-1075.87024	-154.27998	40.94069	-1136.35754	29.14802	70.97054	-854.69275	-332.73117	599.42194	-885.85455	-352.96332	441.60989	-887.42236	-434.53519	284.85599	-947.93103	-490.79706	89.08667	-1002.37683	-543.10803	59.60867	-941.81232	-358.50659	33.22964	-972.37921	-228.81108	1711.90723	-3102.00415	1972.96118	1023.38690	-3140.71216	2012.57349	1022.03882			 
